<svg id="Livello_1" data-name="Livello 1" xmlns="http://www.w3.org/2000/svg" viewBox="0 0 229.4 73.34"><defs><style>.cls-1{fill:none;stroke:#000;stroke-miterlimit:10;stroke-width:2px;}.cls-2,.cls-3,.cls-4,.cls-5,.cls-6{isolation:isolate;}.cls-2,.cls-4,.cls-5,.cls-6{font-size:28px;font-family:Prata-Regular, Prata;}.cls-4{letter-spacing:-0.03em;}.cls-5{letter-spacing:0.01em;}.cls-6{letter-spacing:0.02em;}</style></defs><title>black_full_logo</title><g id="LogoHome"><path d="M41.3,46.38c2.5,5.1,2.7,9.1,2.4,10.8a14.54,14.54,0,0,1-1.8,4.9l.4.2a11.93,11.93,0,0,0,12-2.2l.9-.9c2.3-2.3,3.5-4.7,3.5-7.3a9.2,9.2,0,0,0-3-6.9,6.84,6.84,0,0,0-5-2.2,15.14,15.14,0,0,0-6.2,2Zm-7.2-16.7a14,14,0,0,0,2.1,6.2l1.8,3.6c1.6-.7,3.4-1.4,5.1-2h0a11.91,11.91,0,0,1,5.3-.5,12.7,12.7,0,0,1,5,1.9l.3-.7a11.93,11.93,0,0,0-2.2-12l-.9-.9c-2.3-2.3-4.7-3.5-7.3-3.5a9.44,9.44,0,0,0-6.9,2.9A6.59,6.59,0,0,0,34.1,29.68ZM15.9,44.48a6.8,6.8,0,0,0,5,2.2,13.76,13.76,0,0,0,6.2-2.1s1.5-.8,3.9-1.9c-.7-1.7-1.4-3.4-2.1-5.2h0a13.39,13.39,0,0,1-.5-5.3,11.07,11.07,0,0,1,1.7-4.7l-.8-.3a11.93,11.93,0,0,0-12,2.2l-.9.9c-2.3,2.3-3.5,4.7-3.5,7.3A9.55,9.55,0,0,0,15.9,44.48ZM29,67.58a9.18,9.18,0,0,0,6.9-3,7,7,0,0,0,1.9-2.9A.66.66,0,0,1,38,61a5.66,5.66,0,0,0,.1-1.3,15.14,15.14,0,0,0-2-6.2l-1.8-3.6c-5.2,2.5-9.2,2.7-10.8,2.5a11.2,11.2,0,0,1-4.6-1.7l-.2.5a11.93,11.93,0,0,0,2.2,12l.9.9C24,66.38,26.4,67.58,29,67.58Zm32.1-33.2a1,1,0,0,1-.3.9l-5.4,5.4.2.2a15.79,15.79,0,0,1,4,6.2,11,11,0,0,1,.3,6.7A12.8,12.8,0,0,1,56.2,60a21.92,21.92,0,0,1-6.9,4.8,2,2,0,0,0-1.1,1.1L47,69a1.13,1.13,0,0,1-.8.7,1,1,0,0,1-.9-.3l-5.2-5.2-.2.2a15.68,15.68,0,0,1-6.2,4,11,11,0,0,1-6.7.3A13.56,13.56,0,0,1,20.8,65a21.92,21.92,0,0,1-4.8-6.9A2,2,0,0,0,14.9,57l-3.2-1.2A1.13,1.13,0,0,1,11,55a1.42,1.42,0,0,1,.3-.9l5.2-5.2-.4-.4a15.79,15.79,0,0,1-4-6.2,11,11,0,0,1-.3-6.7,13.61,13.61,0,0,1,3.7-6.2,21.92,21.92,0,0,1,6.9-4.8,2,2,0,0,0,1.1-1.1l1.2-3.1a1.13,1.13,0,0,1,.8-.7,1,1,0,0,1,.9.3l5.4,5.4.4-.4a15.91,15.91,0,0,1,6.2-4,11,11,0,0,1,6.7-.3,13.56,13.56,0,0,1,6.2,3.7,21.33,21.33,0,0,1,4.8,7,2,2,0,0,0,1.1,1.1l3.2,1.2C60.8,33.68,61,34,61.1,34.38ZM39.6,44.68a3.5,3.5,0,1,0-3.5,3.5h0a3.41,3.41,0,0,0,3.5-3.34Z" transform="translate(0 -8.68)"/><circle class="cls-1" cx="36" cy="36" r="35"/></g><text class="cls-2" transform="translate(83.5 31.31)">Spazi</text><g class="cls-3"><text class="cls-2" transform="translate(83.5 63.2)">Sos</text><text class="cls-4" transform="translate(132.39 63.2)">t</text><text class="cls-2" transform="translate(141.26 63.2)">e</text></g><g class="cls-3"><text class="cls-5" transform="translate(156.97 63.2) scale(1.02 1)">n</text><text class="cls-6" transform="translate(175.31 63.2) scale(1.02 1)">ibili</text></g></svg>