<svg id="Livello_1" data-name="Livello 1" xmlns="http://www.w3.org/2000/svg" viewBox="0 0 318.7 81.1"><defs><style>.cls-1,.cls-3,.cls-5{fill:#fff;}.cls-2{fill:none;stroke:#fff;stroke-miterlimit:10;stroke-width:2px;}.cls-3,.cls-5{font-size:28px;font-family:Prata-Regular, Prata;}.cls-4{letter-spacing:-0.03em;}.cls-5{letter-spacing:0.01em;}.cls-6{letter-spacing:0.02em;}</style></defs><title>full_logo</title><g id="LogoHome"><path class="cls-1" d="M47.8,47.9c2.5,5.1,2.7,9.1,2.4,10.8a14.49,14.49,0,0,1-1.8,4.9l.4.2a11.93,11.93,0,0,0,12-2.2l.9-.9c2.3-2.3,3.5-4.7,3.5-7.3a9.17,9.17,0,0,0-3-6.9,6.82,6.82,0,0,0-5-2.2,15.09,15.09,0,0,0-6.2,2ZM40.6,31.2a13.88,13.88,0,0,0,2.1,6.2L44.5,41c1.6-.7,3.4-1.4,5.1-2h0a11.87,11.87,0,0,1,5.3-.5,12.68,12.68,0,0,1,5,1.9l.3-.7a11.93,11.93,0,0,0-2.2-12l-.9-.9c-2.3-2.3-4.7-3.5-7.3-3.5a9.44,9.44,0,0,0-6.9,2.9A6.56,6.56,0,0,0,40.6,31.2ZM22.4,46a6.82,6.82,0,0,0,5,2.2,13.88,13.88,0,0,0,6.2-2.1s1.5-.8,3.9-1.9c-.7-1.7-1.4-3.4-2.1-5.2h0a13.51,13.51,0,0,1-.5-5.3A11.09,11.09,0,0,1,36.6,29l-.8-.3a11.93,11.93,0,0,0-12,2.2l-.9.9c-2.3,2.3-3.5,4.7-3.5,7.3a9.54,9.54,0,0,0,3,6.9ZM35.5,69.1a9.17,9.17,0,0,0,6.9-3,7,7,0,0,0,1.9-2.9.66.66,0,0,1,.2-.7,5.7,5.7,0,0,0,.1-1.3,15.09,15.09,0,0,0-2-6.2l-1.8-3.6c-5.2,2.5-9.2,2.7-10.8,2.5a11.18,11.18,0,0,1-4.6-1.7l-.2.5a11.93,11.93,0,0,0,2.2,12l.9.9C30.5,67.9,32.9,69.1,35.5,69.1ZM67.6,35.9a1,1,0,0,1-.3.9l-5.4,5.4.2.2a15.79,15.79,0,0,1,4,6.2,11,11,0,0,1,.3,6.7,12.77,12.77,0,0,1-3.7,6.2,22,22,0,0,1-6.9,4.8,2,2,0,0,0-1.1,1.1l-1.2,3.1a1.14,1.14,0,0,1-.8.7,1,1,0,0,1-.9-.3l-5.2-5.2-.2.2a15.79,15.79,0,0,1-6.2,4,11,11,0,0,1-6.7.3,13.58,13.58,0,0,1-6.2-3.7,22,22,0,0,1-4.8-6.9,2,2,0,0,0-1.1-1.1l-3.2-1.2a1.14,1.14,0,0,1-.7-.8,1.4,1.4,0,0,1,.3-.9L23,50.4l-.4-.4a15.79,15.79,0,0,1-4-6.2,11,11,0,0,1-.3-6.7A13.58,13.58,0,0,1,22,30.9a22,22,0,0,1,6.9-4.8A2,2,0,0,0,30,25l1.2-3.1a1.14,1.14,0,0,1,.8-.7,1,1,0,0,1,.9.3l5.4,5.4.4-.4a15.79,15.79,0,0,1,6.2-4,11,11,0,0,1,6.7-.3,13.58,13.58,0,0,1,6.2,3.7,21.31,21.31,0,0,1,4.8,7A2,2,0,0,0,63.7,34l3.2,1.2c.4,0,.6.3.7.7ZM46.1,46.2a3.5,3.5,0,1,0-3.5,3.5h0A3.42,3.42,0,0,0,46.1,46.2Z" transform="translate(-6.5 -10.2)"/><circle class="cls-2" cx="36" cy="36" r="35"/></g><text class="cls-3" transform="translate(83.5 31.31)">Spazi</text><text class="cls-3" transform="translate(83.5 63.2)">Sos<tspan class="cls-4" x="48.89" y="0">t</tspan><tspan x="57.76" y="0">e</tspan></text><text class="cls-5" transform="translate(156.97 63.2) scale(1.02 1)">n<tspan class="cls-6" x="17.98" y="0">ibili</tspan></text></svg>