<?xml version="1.0" encoding="utf-8"?>
<!-- Generator: Adobe Illustrator 23.0.1, SVG Export Plug-In . SVG Version: 6.00 Build 0)  -->
<svg version="1.1" id="Livello_1" xmlns="http://www.w3.org/2000/svg" xmlns:xlink="http://www.w3.org/1999/xlink" x="0px" y="0px"
	 viewBox="0 0 186 186" style="enable-background:new 0 0 186 186;" xml:space="preserve">
<style type="text/css">
	.st0{fill:#0F8B8D;stroke:#0F8B8D;stroke-width:3;stroke-miterlimit:10;}
	.st1{fill:none;}
	.st2{fill:none;stroke:#0F8B8D;stroke-width:5;stroke-miterlimit:10;}
</style>
<title>Risorsa 1</title>
<g>
	<g id="Livello_1-2">
		<g id="ICONE">
			<g id="LogoHome">
				<path class="st0" d="M157.8,66.1c0.1,0.9-0.2,1.8-0.8,2.4l-14,14l0.5,0.4c4.7,4.5,8.3,10,10.6,16c2,5.5,2.3,11.5,0.8,17.2
					c-1.7,6.1-5,11.7-9.6,16.1c-5.1,5.3-11.2,9.5-18,12.4c-1.3,0.6-2.4,1.7-2.8,3l-3.1,8.1c-0.3,0.9-1.1,1.5-2,1.7
					c-0.9,0.1-1.8-0.2-2.4-0.8l-13.4-13.4l-0.4,0.5c-4.5,4.7-10,8.3-16.1,10.5c-5.5,2-11.5,2.3-17.2,0.8c-5.7-1.5-11.1-4.7-16-9.6
					c-5.3-5.1-9.5-11.2-12.5-17.9c-0.6-1.3-1.6-2.4-3-2.8l-8.1-3.1c-0.9-0.3-1.5-1.1-1.6-2c-0.1-0.9,0.2-1.8,0.8-2.4l13.4-13.4
					c-0.4-0.3-0.7-0.7-1.1-1c-4.7-4.5-8.3-10-10.5-16.2c-2-5.5-2.3-11.5-0.8-17.2c1.7-6.1,5-11.7,9.6-16.1C45,48.2,51.1,44,57.8,41
					c1.3-0.6,2.4-1.7,2.8-3l3.1-8.1c0.3-0.9,1.1-1.5,2-1.6c0.9-0.1,1.8,0.2,2.4,0.8l14,14c0.3-0.4,0.7-0.7,1.1-1.1
					c4.5-4.7,10-8.2,16.1-10.5c5.5-2,11.5-2.3,17.2-0.8c6.1,1.7,11.6,5,16,9.6c5.3,5.1,9.5,11.3,12.4,18c0.6,1.3,1.7,2.4,3,2.8
					l8.1,3.1C156.9,64.5,157.6,65.2,157.8,66.1z M151.8,111.2c0.2-6.6-2.4-12.6-7.7-17.9c-3.9-3.9-8.2-5.8-12.9-5.6
					c-4.7,0.2-10,1.9-16,5.3l-8.6,4.2c6.4,13.3,6.8,23.6,6.2,27.8c-0.7,4.5-2.3,8.8-4.8,12.6l1.1,0.4c10.6,4,22.5,1.8,31-5.7
					c0.8-0.7,1.6-1.5,2.4-2.3C148.6,124.1,151.6,117.9,151.8,111.2L151.8,111.2z M138.3,76.2c4-10.6,1.8-22.5-5.7-31
					c-0.7-0.8-1.5-1.6-2.3-2.4c-5.9-5.9-12.2-9-18.8-9.1S98.9,36,93.6,41.3c-3.9,3.9-5.8,8.2-5.6,12.9s2,10,5.3,16l4.6,9.4
					c4.3-1.8,8.7-3.6,13.2-5.3l0,0c4.4-1.4,9-1.8,13.6-1.2c4.6,0.7,9,2.4,12.9,5L138.3,76.2z M102.1,93c0-5-4.1-9.1-9.1-9.1
					S83.9,88,83.9,93s4.1,9.1,9.1,9.1S102.1,98,102.1,93L102.1,93z M98,135.1c0.2-1.1,0.3-2.3,0.3-3.5c-0.2-4.7-1.9-10-5.3-16
					c-5.1-9-1.9-3.6-4.6-9.3c-13.4,6.6-23.8,7-28,6.4c-4.2-0.6-8.3-2.1-11.9-4.3l-0.4,1.3c-3.9,10.6-1.8,22.5,5.7,31
					c0.7,0.8,1.5,1.6,2.3,2.4c5.9,5.9,12.2,9,18.8,9.1s12.6-2.4,17.9-7.7c2.2-2.1,3.8-4.7,4.9-7.5C97.3,136.3,97.5,135.6,98,135.1z
					 M77.9,48.5l-2.1-0.8c-10.6-4-22.5-1.8-31,5.7c-0.8,0.7-1.6,1.5-2.4,2.3c-5.9,5.9-9,12.2-9.1,18.8c-0.2,6.6,2.4,12.6,7.7,17.9
					c3.9,3.9,8.2,5.8,12.9,5.6c4.7-0.2,10-1.9,16-5.3c9-5.1,4-2,10.2-5c-1.8-4.3-3.7-8.9-5.4-13.4l0,0c-1.4-4.4-1.8-9-1.2-13.6
					C74,56.4,75.5,52.2,77.9,48.5z"/>
				<circle class="st1" cx="93" cy="93" r="9.1"/>
				<circle class="st2" cx="93" cy="93" r="90.5"/>
			</g>
		</g>
	</g>
</g>
</svg>
