<svg xmlns="http://www.w3.org/2000/svg" viewBox="0 0 70.13 70.05"><defs><style>.cls-1{fill:#fff;}.cls-2{fill:none;stroke:#fff;stroke-miterlimit:10;}</style></defs><title>Risorsa 2</title><g id="Livello_2" data-name="Livello 2"><g id="Livello_1-2" data-name="Livello 1"><path class="cls-1" d="M68.83,64.68a2.88,2.88,0,1,1-4.15,4L47.48,51.51a28.72,28.72,0,1,1,4.07-4.07L68.75,64.6ZM52.28,29.25a23,23,0,1,0-23,23A23,23,0,0,0,52.28,29.25Z"/><path class="cls-2" d="M29.24.5a28.78,28.78,0,1,0,18.24,51l17.2,17.16a2.88,2.88,0,1,0,4.15-4l-.08-.08L51.55,47.44A28.76,28.76,0,0,0,29.24.5Z"/><path class="cls-2" d="M29.25,6.25a23,23,0,1,1-23,23.05A23,23,0,0,1,29.25,6.25Z"/></g></g></svg>